<svg width="66" height="55" viewBox="0 0 66 55" fill="none" xmlns="http://www.w3.org/2000/svg">
<path fill-rule="evenodd" clip-rule="evenodd" d="M28.6768 51.4454C32.4716 53.7511 36.9629 54.9039 42.1507 54.9039C44.8406 54.9039 47.2904 54.6878 49.5 54.2555C51.7096 53.8232 54.0633 53.2227 56.5611 52.4542C59.0109 51.6856 60.7642 51.2773 61.821 51.2293V31.8472L66 31.1987V26.9476H44.9607V31.1987L54.0393 31.9192V47.9869C52.9345 48.8996 51.3493 49.6441 49.2838 50.2205C47.2183 50.7489 45.0327 51.0131 42.7271 51.0131C39.0764 51.0131 35.9782 49.9083 33.4323 47.6987C30.9345 45.4411 29.0611 42.4629 27.8122 38.7642C26.6113 35.0655 26.0109 30.9825 26.0109 26.5153C26.0109 21.6638 26.7554 17.5328 28.2445 14.1223C29.7817 10.7118 31.8952 8.14192 34.5851 6.41266C37.2751 4.68341 40.3734 3.81878 43.8799 3.81878C46.5699 3.81878 48.7074 4.05896 50.2926 4.5393C51.9258 5.01965 53.0786 5.52402 53.7511 6.0524L55.4804 14.6987H60.5961L61.2445 2.23363C54.9039 0.744542 49.3079 0 44.4563 0C39.1725 0 34.4651 1.1048 30.3341 3.31441C26.203 5.47599 22.9607 8.67031 20.607 12.8974C18.3013 17.1245 17.1485 22.1921 17.1485 28.1004C17.1485 33.2402 18.1332 37.8515 20.1026 41.9345C22.072 45.9694 24.9301 49.1398 28.6768 51.4454ZM31.4895 9.8938C31.776 10.96 31.9192 12.1773 31.9192 13.5459C31.9192 17.0044 31.0546 19.6703 29.3253 21.5437C28.8569 22.0512 28.3285 22.49 27.7402 22.86V29.0052C29.5598 29.418 31.0008 30.1011 32.0633 31.0546C33.9847 32.7358 34.9454 35.4258 34.9454 39.1245C34.9454 41.5692 34.4751 43.6458 33.5343 45.3543L40.1531 48.0213C42.3494 45.2838 43.4476 41.9819 43.4476 38.1157C43.4476 34.2249 42.1267 31.1507 39.4847 28.893C36.8428 26.6354 33.2162 25.5546 28.6048 25.6507C32.0153 25.0262 34.7052 23.4891 36.6747 21.0393C38.6441 18.5895 39.6288 15.6594 39.6288 12.2489C39.6288 10.2778 39.2766 8.54142 38.5721 7.03993L31.4895 9.8938ZM21.1114 50.7249C22.0189 50.7249 22.8794 50.6905 23.6928 50.6215L31.0226 53.575C28.2764 54.2688 25.0207 54.6157 21.2555 54.6157C19.5262 54.6157 17.869 54.5437 16.2838 54.3996C12.5371 54.2555 10.3035 54.1834 9.58297 54.1834H0V50.6529L5.98035 49.9323V5.11573L0.0720523 4.25111V0.648486H9.79913C11.4323 0.648486 13.4978 0.552416 15.9956 0.360276C18.3013 0.168136 20.0066 0.0720654 21.1114 0.0720654C24.8466 0.0720654 27.9793 0.399974 30.5097 1.05579L23.3017 3.9602C22.4283 3.86593 21.482 3.81879 20.4629 3.81879C18.7336 3.81879 16.9563 3.91486 15.131 4.107L13.6179 4.25111V24.2817L13.6899 24.2866V28.6717L13.6179 28.6769V50.1485C14.7227 50.5328 17.2205 50.7249 21.1114 50.7249Z" fill="#363535"/>
</svg>
